#N canvas 238 128 984 715 10;
#X obj 42 140 osc~;
#X obj 41 172 *~ 1;
#X floatatom 78 174 5 0 0 0 - - -;
#X obj 44 233 dac~;
#X obj 36 18 key;
#X floatatom 36 43 5 0 0 0 - - -;
#X obj 36 70 select 97 115 100 102;
#X msg 36 96 220;
#X msg 69 95 330;
#X msg 109 95 440;
#X msg 152 95 550;
#X obj 269 37 metro 250;
#X obj 269 14 tgl 15 0 empty empty empty 17 7 0 10 -262144 -1 -1 0
1;
#X obj 269 65 bng 15 250 50 0 empty empty empty 17 7 0 10 -262144 -1
-1;
#X floatatom 271 117 5 0 0 0 - - -;
#X obj 270 93 counter 3;
#X obj 270 148 select 0 1 2 3;
#X obj 235 206 bng 15 250 50 0 empty empty empty 17 7 0 10 -262144
-1 -1;
#X obj 260 368 osc~;
#X obj 259 400 *~ 1;
#X floatatom 296 402 5 0 0 0 - - -;
#X obj 252 458 dac~;
#X floatatom 251 222 5 0 0 0 - - -;
#X floatatom 254 335 5 0 0 0 - - -;
#X obj 240 256 f;
#X obj 286 204 bng 15 250 50 0 empty empty empty 17 7 0 10 -262144
-1 -1;
#X floatatom 302 220 5 0 0 0 - - -;
#X obj 291 254 f;
#X obj 339 196 bng 15 250 50 0 empty empty empty 17 7 0 10 -262144
-1 -1;
#X floatatom 355 212 5 0 0 0 - - -;
#X obj 344 246 f;
#X obj 397 200 bng 15 250 50 0 empty empty empty 17 7 0 10 -262144
-1 -1;
#X floatatom 413 216 5 0 0 0 - - -;
#X obj 402 250 f;
#X obj 485 172 random 2000;
#X obj 487 200 + 100;
#X obj 481 145 bng 15 250 50 0 empty empty empty 17 7 0 10 -262144
-1 -1;
#X obj 717 253 mtof;
#X floatatom 715 224 5 0 0 0 - - -;
#X floatatom 720 286 5 0 0 0 - - -;
#X obj 717 167 random 24;
#X obj 716 197 + 60;
#X obj 721 139 bng 15 250 50 0 empty empty empty 17 7 0 10 -262144
-1 -1;
#X floatatom 561 314 5 0 0 0 - - -;
#X obj 563 430 * 1;
#X floatatom 563 476 5 0 0 0 - - -;
#X obj 612 401 * 9;
#X obj 614 431 / 8;
#X floatatom 615 472 5 0 0 0 - - -;
#X floatatom 658 471 5 0 0 0 - - -;
#X obj 655 400 * 5;
#X obj 657 430 / 4;
#X floatatom 693 469 5 0 0 0 - - -;
#X obj 690 398 * 3;
#X obj 692 428 / 2;
#X floatatom 735 466 5 0 0 0 - - -;
#X obj 732 395 * 5;
#X obj 734 425 / 3;
#X obj 773 399 * 2;
#X floatatom 776 466 5 0 0 0 - - -;
#X obj 470 352 random 6;
#X obj 469 402 select 0 1 2 3 4 5;
#X obj 479 330 bng 15 250 50 0 empty empty empty 17 7 0 10 -262144
-1 -1;
#X floatatom 471 377 5 0 0 0 - - -;
#X floatatom 560 538 5 0 0 0 - - -;
#X text 486 58 tres formas de generar frecuencias aleatorias;
#X connect 0 0 1 0;
#X connect 1 0 3 0;
#X connect 1 0 3 1;
#X connect 2 0 1 1;
#X connect 4 0 5 0;
#X connect 5 0 6 0;
#X connect 6 0 7 0;
#X connect 6 1 8 0;
#X connect 6 2 9 0;
#X connect 6 3 10 0;
#X connect 7 0 0 0;
#X connect 8 0 0 0;
#X connect 9 0 0 0;
#X connect 10 0 0 0;
#X connect 11 0 13 0;
#X connect 12 0 11 0;
#X connect 13 0 15 0;
#X connect 14 0 16 0;
#X connect 15 0 14 0;
#X connect 16 0 17 0;
#X connect 16 1 25 0;
#X connect 16 2 28 0;
#X connect 16 3 31 0;
#X connect 17 0 24 0;
#X connect 18 0 19 0;
#X connect 19 0 21 0;
#X connect 19 0 21 1;
#X connect 20 0 19 1;
#X connect 22 0 24 1;
#X connect 23 0 18 0;
#X connect 24 0 23 0;
#X connect 25 0 27 0;
#X connect 26 0 27 1;
#X connect 27 0 23 0;
#X connect 28 0 30 0;
#X connect 29 0 30 1;
#X connect 30 0 23 0;
#X connect 31 0 33 0;
#X connect 32 0 33 1;
#X connect 33 0 23 0;
#X connect 34 0 35 0;
#X connect 36 0 34 0;
#X connect 37 0 39 0;
#X connect 38 0 37 0;
#X connect 40 0 41 0;
#X connect 41 0 38 0;
#X connect 42 0 40 0;
#X connect 43 0 44 0;
#X connect 43 0 46 0;
#X connect 43 0 50 0;
#X connect 43 0 58 0;
#X connect 43 0 53 0;
#X connect 43 0 56 0;
#X connect 44 0 45 0;
#X connect 45 0 64 0;
#X connect 46 0 47 0;
#X connect 47 0 48 0;
#X connect 48 0 64 0;
#X connect 49 0 64 0;
#X connect 50 0 51 0;
#X connect 51 0 49 0;
#X connect 52 0 64 0;
#X connect 53 0 54 0;
#X connect 54 0 52 0;
#X connect 55 0 64 0;
#X connect 56 0 57 0;
#X connect 57 0 55 0;
#X connect 58 0 59 0;
#X connect 59 0 64 0;
#X connect 60 0 63 0;
#X connect 61 0 45 0;
#X connect 61 1 48 0;
#X connect 61 2 49 0;
#X connect 61 3 52 0;
#X connect 61 4 55 0;
#X connect 61 5 59 0;
#X connect 62 0 60 0;
#X connect 63 0 61 0;
