#N canvas -88 4 800 570 10;
#X obj 195 14 metro 250;
#X obj 195 -9 tgl 15 0 empty empty empty 17 7 0 10 -262144 -1 -1 0
1;
#X obj 195 42 bng 15 250 50 0 empty empty empty 17 7 0 10 -262144 -1
-1;
#X floatatom 197 94 5 0 0 0 - - -;
#X obj 161 183 bng 15 250 50 0 empty empty empty 17 7 0 10 -262144
-1 -1;
#X obj 169 302 osc~;
#X obj 438 534 dac~;
#X floatatom 177 199 5 0 0 0 - - -;
#X floatatom 169 271 5 0 0 0 - - -;
#X obj 166 233 f;
#X obj 212 181 bng 15 250 50 0 empty empty empty 17 7 0 10 -262144
-1 -1;
#X floatatom 228 197 5 0 0 0 - - -;
#X obj 217 231 f;
#X obj 265 173 bng 15 250 50 0 empty empty empty 17 7 0 10 -262144
-1 -1;
#X floatatom 281 189 5 0 0 0 - - -;
#X obj 270 223 f;
#X obj 323 177 bng 15 250 50 0 empty empty empty 17 7 0 10 -262144
-1 -1;
#X floatatom 339 193 5 0 0 0 - - -;
#X obj 328 227 f;
#X obj 179 494 *~;
#X obj 239 480 line~;
#X obj 240 403 hsl 128 15 0 1 0 0 empty empty empty -2 -8 0 10 -262144
-1 -1 8600 1;
#X floatatom 238 428 5 0 0 0 - - -;
#X msg 239 453 \$1 20;
#X obj 171 391 *~;
#X obj 231 354 vline~;
#X msg 236 318 0 \, 1 20 0 \, 0 20 200;
#X msg 371 316 0 \, 1 100 \, 0 100 100;
#X msg 501 314 0 \, 1 20 0 \, 0 20 50;
#N canvas 397 224 624 442 notapenta 0;
#X floatatom 158 66 5 0 0 0 - - -;
#X obj 160 182 * 1;
#X floatatom 160 228 5 0 0 0 - - -;
#X obj 209 153 * 9;
#X obj 211 183 / 8;
#X floatatom 212 224 5 0 0 0 - - -;
#X floatatom 255 223 5 0 0 0 - - -;
#X obj 252 152 * 5;
#X obj 254 182 / 4;
#X floatatom 304 224 5 0 0 0 - - -;
#X obj 301 153 * 3;
#X obj 303 183 / 2;
#X floatatom 346 221 5 0 0 0 - - -;
#X obj 343 150 * 5;
#X obj 345 180 / 3;
#X obj 393 154 * 2;
#X floatatom 396 221 5 0 0 0 - - -;
#X obj 50 76 random 6;
#X obj 49 126 select 0 1 2 3 4 5;
#X obj 47 30 bng 15 250 50 0 empty empty empty 17 7 0 10 -262144 -1
-1;
#X floatatom 51 101 5 0 0 0 - - -;
#X floatatom 147 384 5 0 0 0 - - -;
#X obj 145 253 f;
#X obj 198 252 f;
#X obj 241 251 f;
#X obj 290 249 f;
#X obj 331 252 f;
#X obj 382 249 f;
#X obj 39 3 inlet;
#X obj 140 413 outlet;
#X obj 155 26 r ff;
#X connect 0 0 1 0;
#X connect 0 0 3 0;
#X connect 0 0 7 0;
#X connect 0 0 15 0;
#X connect 0 0 10 0;
#X connect 0 0 13 0;
#X connect 1 0 2 0;
#X connect 2 0 22 1;
#X connect 3 0 4 0;
#X connect 4 0 5 0;
#X connect 5 0 23 1;
#X connect 6 0 24 1;
#X connect 7 0 8 0;
#X connect 8 0 6 0;
#X connect 9 0 25 1;
#X connect 10 0 11 0;
#X connect 11 0 9 0;
#X connect 12 0 26 1;
#X connect 13 0 14 0;
#X connect 14 0 12 0;
#X connect 15 0 16 0;
#X connect 16 0 27 1;
#X connect 17 0 20 0;
#X connect 18 0 22 0;
#X connect 18 1 23 0;
#X connect 18 2 24 0;
#X connect 18 3 25 0;
#X connect 18 4 26 0;
#X connect 18 5 27 0;
#X connect 19 0 17 0;
#X connect 20 0 18 0;
#X connect 21 0 29 0;
#X connect 22 0 21 0;
#X connect 23 0 21 0;
#X connect 24 0 21 0;
#X connect 25 0 21 0;
#X connect 26 0 21 0;
#X connect 27 0 21 0;
#X connect 28 0 19 0;
#X connect 30 0 0 0;
#X restore 315 94 pd notapenta;
#X obj 315 71 bng 15 250 50 0 empty empty empty 17 7 0 10 -262144 -1
-1;
#X obj 513 38 s ff;
#X floatatom 509 9 5 0 0 0 - - -;
#N canvas 397 224 624 442 notapenta 0;
#X floatatom 158 66 5 0 0 0 - - -;
#X obj 160 182 * 1;
#X floatatom 160 228 5 0 0 0 - - -;
#X obj 209 153 * 9;
#X obj 211 183 / 8;
#X floatatom 212 224 5 0 0 0 - - -;
#X floatatom 255 223 5 0 0 0 - - -;
#X obj 252 152 * 5;
#X obj 254 182 / 4;
#X floatatom 304 224 5 0 0 0 - - -;
#X obj 301 153 * 3;
#X obj 303 183 / 2;
#X floatatom 346 221 5 0 0 0 - - -;
#X obj 343 150 * 5;
#X obj 345 180 / 3;
#X obj 393 154 * 2;
#X floatatom 396 221 5 0 0 0 - - -;
#X obj 50 76 random 6;
#X obj 49 126 select 0 1 2 3 4 5;
#X obj 47 30 bng 15 250 50 0 empty empty empty 17 7 0 10 -262144 -1
-1;
#X floatatom 51 101 5 0 0 0 - - -;
#X floatatom 147 384 5 0 0 0 - - -;
#X obj 145 253 f;
#X obj 198 252 f;
#X obj 241 251 f;
#X obj 290 249 f;
#X obj 331 252 f;
#X obj 382 249 f;
#X obj 39 3 inlet;
#X obj 140 413 outlet;
#X obj 155 26 r ff;
#X connect 0 0 1 0;
#X connect 0 0 3 0;
#X connect 0 0 7 0;
#X connect 0 0 15 0;
#X connect 0 0 10 0;
#X connect 0 0 13 0;
#X connect 1 0 2 0;
#X connect 2 0 22 1;
#X connect 3 0 4 0;
#X connect 4 0 5 0;
#X connect 5 0 23 1;
#X connect 6 0 24 1;
#X connect 7 0 8 0;
#X connect 8 0 6 0;
#X connect 9 0 25 1;
#X connect 10 0 11 0;
#X connect 11 0 9 0;
#X connect 12 0 26 1;
#X connect 13 0 14 0;
#X connect 14 0 12 0;
#X connect 15 0 16 0;
#X connect 16 0 27 1;
#X connect 17 0 20 0;
#X connect 18 0 22 0;
#X connect 18 1 23 0;
#X connect 18 2 24 0;
#X connect 18 3 25 0;
#X connect 18 4 26 0;
#X connect 18 5 27 0;
#X connect 19 0 17 0;
#X connect 20 0 18 0;
#X connect 21 0 29 0;
#X connect 22 0 21 0;
#X connect 23 0 21 0;
#X connect 24 0 21 0;
#X connect 25 0 21 0;
#X connect 26 0 21 0;
#X connect 27 0 21 0;
#X connect 28 0 19 0;
#X connect 30 0 0 0;
#X restore 395 92 pd notapenta;
#X obj 395 69 bng 15 250 50 0 empty empty empty 17 7 0 10 -262144 -1
-1;
#N canvas 397 224 624 442 notapenta 0;
#X floatatom 158 66 5 0 0 0 - - -;
#X obj 160 182 * 1;
#X floatatom 160 228 5 0 0 0 - - -;
#X obj 209 153 * 9;
#X obj 211 183 / 8;
#X floatatom 212 224 5 0 0 0 - - -;
#X floatatom 255 223 5 0 0 0 - - -;
#X obj 252 152 * 5;
#X obj 254 182 / 4;
#X floatatom 304 224 5 0 0 0 - - -;
#X obj 301 153 * 3;
#X obj 303 183 / 2;
#X floatatom 346 221 5 0 0 0 - - -;
#X obj 343 150 * 5;
#X obj 345 180 / 3;
#X obj 393 154 * 2;
#X floatatom 396 221 5 0 0 0 - - -;
#X obj 50 76 random 6;
#X obj 49 126 select 0 1 2 3 4 5;
#X obj 47 30 bng 15 250 50 0 empty empty empty 17 7 0 10 -262144 -1
-1;
#X floatatom 51 101 5 0 0 0 - - -;
#X floatatom 147 384 5 0 0 0 - - -;
#X obj 145 253 f;
#X obj 198 252 f;
#X obj 241 251 f;
#X obj 290 249 f;
#X obj 331 252 f;
#X obj 382 249 f;
#X obj 39 3 inlet;
#X obj 140 413 outlet;
#X obj 155 26 r ff;
#X connect 0 0 1 0;
#X connect 0 0 3 0;
#X connect 0 0 7 0;
#X connect 0 0 15 0;
#X connect 0 0 10 0;
#X connect 0 0 13 0;
#X connect 1 0 2 0;
#X connect 2 0 22 1;
#X connect 3 0 4 0;
#X connect 4 0 5 0;
#X connect 5 0 23 1;
#X connect 6 0 24 1;
#X connect 7 0 8 0;
#X connect 8 0 6 0;
#X connect 9 0 25 1;
#X connect 10 0 11 0;
#X connect 11 0 9 0;
#X connect 12 0 26 1;
#X connect 13 0 14 0;
#X connect 14 0 12 0;
#X connect 15 0 16 0;
#X connect 16 0 27 1;
#X connect 17 0 20 0;
#X connect 18 0 22 0;
#X connect 18 1 23 0;
#X connect 18 2 24 0;
#X connect 18 3 25 0;
#X connect 18 4 26 0;
#X connect 18 5 27 0;
#X connect 19 0 17 0;
#X connect 20 0 18 0;
#X connect 21 0 29 0;
#X connect 22 0 21 0;
#X connect 23 0 21 0;
#X connect 24 0 21 0;
#X connect 25 0 21 0;
#X connect 26 0 21 0;
#X connect 27 0 21 0;
#X connect 28 0 19 0;
#X connect 30 0 0 0;
#X restore 478 90 pd notapenta;
#X obj 478 67 bng 15 250 50 0 empty empty empty 17 7 0 10 -262144 -1
-1;
#N canvas 397 224 624 442 notapenta 0;
#X floatatom 158 66 5 0 0 0 - - -;
#X obj 160 182 * 1;
#X floatatom 160 228 5 0 0 0 - - -;
#X obj 209 153 * 9;
#X obj 211 183 / 8;
#X floatatom 212 224 5 0 0 0 - - -;
#X floatatom 255 223 5 0 0 0 - - -;
#X obj 252 152 * 5;
#X obj 254 182 / 4;
#X floatatom 304 224 5 0 0 0 - - -;
#X obj 301 153 * 3;
#X obj 303 183 / 2;
#X floatatom 346 221 5 0 0 0 - - -;
#X obj 343 150 * 5;
#X obj 345 180 / 3;
#X obj 393 154 * 2;
#X floatatom 396 221 5 0 0 0 - - -;
#X obj 50 76 random 6;
#X obj 49 126 select 0 1 2 3 4 5;
#X obj 47 30 bng 15 250 50 0 empty empty empty 17 7 0 10 -262144 -1
-1;
#X floatatom 51 101 5 0 0 0 - - -;
#X floatatom 147 384 5 0 0 0 - - -;
#X obj 145 253 f;
#X obj 198 252 f;
#X obj 241 251 f;
#X obj 290 249 f;
#X obj 331 252 f;
#X obj 382 249 f;
#X obj 39 3 inlet;
#X obj 140 413 outlet;
#X obj 155 26 r ff;
#X connect 0 0 1 0;
#X connect 0 0 3 0;
#X connect 0 0 7 0;
#X connect 0 0 15 0;
#X connect 0 0 10 0;
#X connect 0 0 13 0;
#X connect 1 0 2 0;
#X connect 2 0 22 1;
#X connect 3 0 4 0;
#X connect 4 0 5 0;
#X connect 5 0 23 1;
#X connect 6 0 24 1;
#X connect 7 0 8 0;
#X connect 8 0 6 0;
#X connect 9 0 25 1;
#X connect 10 0 11 0;
#X connect 11 0 9 0;
#X connect 12 0 26 1;
#X connect 13 0 14 0;
#X connect 14 0 12 0;
#X connect 15 0 16 0;
#X connect 16 0 27 1;
#X connect 17 0 20 0;
#X connect 18 0 22 0;
#X connect 18 1 23 0;
#X connect 18 2 24 0;
#X connect 18 3 25 0;
#X connect 18 4 26 0;
#X connect 18 5 27 0;
#X connect 19 0 17 0;
#X connect 20 0 18 0;
#X connect 21 0 29 0;
#X connect 22 0 21 0;
#X connect 23 0 21 0;
#X connect 24 0 21 0;
#X connect 25 0 21 0;
#X connect 26 0 21 0;
#X connect 27 0 21 0;
#X connect 28 0 19 0;
#X connect 30 0 0 0;
#X restore 556 90 pd notapenta;
#X obj 556 67 bng 15 250 50 0 empty empty empty 17 7 0 10 -262144 -1
-1;
#X obj 196 125 select 0 1 2 3 4 5 6 7;
#X obj 196 69 counter 7;
#X obj 376 177 bng 15 250 50 0 empty empty empty 17 7 0 10 -262144
-1 -1;
#X floatatom 392 193 5 0 0 0 - - -;
#X obj 381 227 f;
#N canvas 397 224 624 442 notapenta 0;
#X floatatom 158 66 5 0 0 0 - - -;
#X obj 160 182 * 1;
#X floatatom 160 228 5 0 0 0 - - -;
#X obj 209 153 * 9;
#X obj 211 183 / 8;
#X floatatom 212 224 5 0 0 0 - - -;
#X floatatom 255 223 5 0 0 0 - - -;
#X obj 252 152 * 5;
#X obj 254 182 / 4;
#X floatatom 304 224 5 0 0 0 - - -;
#X obj 301 153 * 3;
#X obj 303 183 / 2;
#X floatatom 346 221 5 0 0 0 - - -;
#X obj 343 150 * 5;
#X obj 345 180 / 3;
#X obj 393 154 * 2;
#X floatatom 396 221 5 0 0 0 - - -;
#X obj 50 76 random 6;
#X obj 49 126 select 0 1 2 3 4 5;
#X obj 47 30 bng 15 250 50 0 empty empty empty 17 7 0 10 -262144 -1
-1;
#X floatatom 51 101 5 0 0 0 - - -;
#X floatatom 147 384 5 0 0 0 - - -;
#X obj 145 253 f;
#X obj 198 252 f;
#X obj 241 251 f;
#X obj 290 249 f;
#X obj 331 252 f;
#X obj 382 249 f;
#X obj 39 3 inlet;
#X obj 140 413 outlet;
#X obj 155 26 r ff;
#X connect 0 0 1 0;
#X connect 0 0 3 0;
#X connect 0 0 7 0;
#X connect 0 0 15 0;
#X connect 0 0 10 0;
#X connect 0 0 13 0;
#X connect 1 0 2 0;
#X connect 2 0 22 1;
#X connect 3 0 4 0;
#X connect 4 0 5 0;
#X connect 5 0 23 1;
#X connect 6 0 24 1;
#X connect 7 0 8 0;
#X connect 8 0 6 0;
#X connect 9 0 25 1;
#X connect 10 0 11 0;
#X connect 11 0 9 0;
#X connect 12 0 26 1;
#X connect 13 0 14 0;
#X connect 14 0 12 0;
#X connect 15 0 16 0;
#X connect 16 0 27 1;
#X connect 17 0 20 0;
#X connect 18 0 22 0;
#X connect 18 1 23 0;
#X connect 18 2 24 0;
#X connect 18 3 25 0;
#X connect 18 4 26 0;
#X connect 18 5 27 0;
#X connect 19 0 17 0;
#X connect 20 0 18 0;
#X connect 21 0 29 0;
#X connect 22 0 21 0;
#X connect 23 0 21 0;
#X connect 24 0 21 0;
#X connect 25 0 21 0;
#X connect 26 0 21 0;
#X connect 27 0 21 0;
#X connect 28 0 19 0;
#X connect 30 0 0 0;
#X restore 609 90 pd notapenta;
#X obj 609 67 bng 15 250 50 0 empty empty empty 17 7 0 10 -262144 -1
-1;
#X obj 429 180 bng 15 250 50 0 empty empty empty 17 7 0 10 -262144
-1 -1;
#X floatatom 445 196 5 0 0 0 - - -;
#X obj 434 230 f;
#N canvas 397 224 624 442 notapenta 0;
#X floatatom 158 66 5 0 0 0 - - -;
#X obj 160 182 * 1;
#X floatatom 160 228 5 0 0 0 - - -;
#X obj 209 153 * 9;
#X obj 211 183 / 8;
#X floatatom 212 224 5 0 0 0 - - -;
#X floatatom 255 223 5 0 0 0 - - -;
#X obj 252 152 * 5;
#X obj 254 182 / 4;
#X floatatom 304 224 5 0 0 0 - - -;
#X obj 301 153 * 3;
#X obj 303 183 / 2;
#X floatatom 346 221 5 0 0 0 - - -;
#X obj 343 150 * 5;
#X obj 345 180 / 3;
#X obj 393 154 * 2;
#X floatatom 396 221 5 0 0 0 - - -;
#X obj 50 76 random 6;
#X obj 49 126 select 0 1 2 3 4 5;
#X obj 47 30 bng 15 250 50 0 empty empty empty 17 7 0 10 -262144 -1
-1;
#X floatatom 51 101 5 0 0 0 - - -;
#X floatatom 147 384 5 0 0 0 - - -;
#X obj 145 253 f;
#X obj 198 252 f;
#X obj 241 251 f;
#X obj 290 249 f;
#X obj 331 252 f;
#X obj 382 249 f;
#X obj 39 3 inlet;
#X obj 140 413 outlet;
#X obj 155 26 r ff;
#X connect 0 0 1 0;
#X connect 0 0 3 0;
#X connect 0 0 7 0;
#X connect 0 0 15 0;
#X connect 0 0 10 0;
#X connect 0 0 13 0;
#X connect 1 0 2 0;
#X connect 2 0 22 1;
#X connect 3 0 4 0;
#X connect 4 0 5 0;
#X connect 5 0 23 1;
#X connect 6 0 24 1;
#X connect 7 0 8 0;
#X connect 8 0 6 0;
#X connect 9 0 25 1;
#X connect 10 0 11 0;
#X connect 11 0 9 0;
#X connect 12 0 26 1;
#X connect 13 0 14 0;
#X connect 14 0 12 0;
#X connect 15 0 16 0;
#X connect 16 0 27 1;
#X connect 17 0 20 0;
#X connect 18 0 22 0;
#X connect 18 1 23 0;
#X connect 18 2 24 0;
#X connect 18 3 25 0;
#X connect 18 4 26 0;
#X connect 18 5 27 0;
#X connect 19 0 17 0;
#X connect 20 0 18 0;
#X connect 21 0 29 0;
#X connect 22 0 21 0;
#X connect 23 0 21 0;
#X connect 24 0 21 0;
#X connect 25 0 21 0;
#X connect 26 0 21 0;
#X connect 27 0 21 0;
#X connect 28 0 19 0;
#X connect 30 0 0 0;
#X restore 662 93 pd notapenta;
#X obj 662 70 bng 15 250 50 0 empty empty empty 17 7 0 10 -262144 -1
-1;
#X obj 477 178 bng 15 250 50 0 empty empty empty 17 7 0 10 -262144
-1 -1;
#X floatatom 493 194 5 0 0 0 - - -;
#X obj 482 228 f;
#N canvas 397 224 624 442 notapenta 0;
#X floatatom 158 66 5 0 0 0 - - -;
#X obj 160 182 * 1;
#X floatatom 160 228 5 0 0 0 - - -;
#X obj 209 153 * 9;
#X obj 211 183 / 8;
#X floatatom 212 224 5 0 0 0 - - -;
#X floatatom 255 223 5 0 0 0 - - -;
#X obj 252 152 * 5;
#X obj 254 182 / 4;
#X floatatom 304 224 5 0 0 0 - - -;
#X obj 301 153 * 3;
#X obj 303 183 / 2;
#X floatatom 346 221 5 0 0 0 - - -;
#X obj 343 150 * 5;
#X obj 345 180 / 3;
#X obj 393 154 * 2;
#X floatatom 396 221 5 0 0 0 - - -;
#X obj 50 76 random 6;
#X obj 49 126 select 0 1 2 3 4 5;
#X obj 47 30 bng 15 250 50 0 empty empty empty 17 7 0 10 -262144 -1
-1;
#X floatatom 51 101 5 0 0 0 - - -;
#X floatatom 147 384 5 0 0 0 - - -;
#X obj 145 253 f;
#X obj 198 252 f;
#X obj 241 251 f;
#X obj 290 249 f;
#X obj 331 252 f;
#X obj 382 249 f;
#X obj 39 3 inlet;
#X obj 140 413 outlet;
#X obj 155 26 r ff;
#X connect 0 0 1 0;
#X connect 0 0 3 0;
#X connect 0 0 7 0;
#X connect 0 0 15 0;
#X connect 0 0 10 0;
#X connect 0 0 13 0;
#X connect 1 0 2 0;
#X connect 2 0 22 1;
#X connect 3 0 4 0;
#X connect 4 0 5 0;
#X connect 5 0 23 1;
#X connect 6 0 24 1;
#X connect 7 0 8 0;
#X connect 8 0 6 0;
#X connect 9 0 25 1;
#X connect 10 0 11 0;
#X connect 11 0 9 0;
#X connect 12 0 26 1;
#X connect 13 0 14 0;
#X connect 14 0 12 0;
#X connect 15 0 16 0;
#X connect 16 0 27 1;
#X connect 17 0 20 0;
#X connect 18 0 22 0;
#X connect 18 1 23 0;
#X connect 18 2 24 0;
#X connect 18 3 25 0;
#X connect 18 4 26 0;
#X connect 18 5 27 0;
#X connect 19 0 17 0;
#X connect 20 0 18 0;
#X connect 21 0 29 0;
#X connect 22 0 21 0;
#X connect 23 0 21 0;
#X connect 24 0 21 0;
#X connect 25 0 21 0;
#X connect 26 0 21 0;
#X connect 27 0 21 0;
#X connect 28 0 19 0;
#X connect 30 0 0 0;
#X restore 710 91 pd notapenta;
#X obj 710 68 bng 15 250 50 0 empty empty empty 17 7 0 10 -262144 -1
-1;
#X obj 528 176 bng 15 250 50 0 empty empty empty 17 7 0 10 -262144
-1 -1;
#X floatatom 544 192 5 0 0 0 - - -;
#X obj 533 226 f;
#N canvas 397 224 624 442 notapenta 0;
#X floatatom 158 66 5 0 0 0 - - -;
#X obj 160 182 * 1;
#X floatatom 160 228 5 0 0 0 - - -;
#X obj 209 153 * 9;
#X obj 211 183 / 8;
#X floatatom 212 224 5 0 0 0 - - -;
#X floatatom 255 223 5 0 0 0 - - -;
#X obj 252 152 * 5;
#X obj 254 182 / 4;
#X floatatom 304 224 5 0 0 0 - - -;
#X obj 301 153 * 3;
#X obj 303 183 / 2;
#X floatatom 346 221 5 0 0 0 - - -;
#X obj 343 150 * 5;
#X obj 345 180 / 3;
#X obj 393 154 * 2;
#X floatatom 396 221 5 0 0 0 - - -;
#X obj 50 76 random 6;
#X obj 49 126 select 0 1 2 3 4 5;
#X obj 47 30 bng 15 250 50 0 empty empty empty 17 7 0 10 -262144 -1
-1;
#X floatatom 51 101 5 0 0 0 - - -;
#X floatatom 147 384 5 0 0 0 - - -;
#X obj 145 253 f;
#X obj 198 252 f;
#X obj 241 251 f;
#X obj 290 249 f;
#X obj 331 252 f;
#X obj 382 249 f;
#X obj 39 3 inlet;
#X obj 140 413 outlet;
#X obj 155 26 r ff;
#X connect 0 0 1 0;
#X connect 0 0 3 0;
#X connect 0 0 7 0;
#X connect 0 0 15 0;
#X connect 0 0 10 0;
#X connect 0 0 13 0;
#X connect 1 0 2 0;
#X connect 2 0 22 1;
#X connect 3 0 4 0;
#X connect 4 0 5 0;
#X connect 5 0 23 1;
#X connect 6 0 24 1;
#X connect 7 0 8 0;
#X connect 8 0 6 0;
#X connect 9 0 25 1;
#X connect 10 0 11 0;
#X connect 11 0 9 0;
#X connect 12 0 26 1;
#X connect 13 0 14 0;
#X connect 14 0 12 0;
#X connect 15 0 16 0;
#X connect 16 0 27 1;
#X connect 17 0 20 0;
#X connect 18 0 22 0;
#X connect 18 1 23 0;
#X connect 18 2 24 0;
#X connect 18 3 25 0;
#X connect 18 4 26 0;
#X connect 18 5 27 0;
#X connect 19 0 17 0;
#X connect 20 0 18 0;
#X connect 21 0 29 0;
#X connect 22 0 21 0;
#X connect 23 0 21 0;
#X connect 24 0 21 0;
#X connect 25 0 21 0;
#X connect 26 0 21 0;
#X connect 27 0 21 0;
#X connect 28 0 19 0;
#X connect 30 0 0 0;
#X restore 761 89 pd notapenta;
#X obj 761 66 bng 15 250 50 0 empty empty empty 17 7 0 10 -262144 -1
-1;
#X floatatom 656 290 5 0 0 0 - - -;
#X obj 655 321 select 0 1 2 3 4 5 6 7;
#X obj 146 111 s paso;
#X obj 655 257 r paso;
#X obj 645 418 click~;
#X obj 647 447 *~ 20;
#X obj 650 379 spigot;
#X obj 682 356 tgl 15 0 empty empty empty 17 7 0 10 -262144 -1 -1 1
1;
#X obj 706 376 spigot;
#X obj 738 353 tgl 15 0 empty empty empty 17 7 0 10 -262144 -1 -1 1
1;
#X obj 752 380 spigot;
#X obj 784 357 tgl 15 0 empty empty empty 17 7 0 10 -262144 -1 -1 1
1;
#X obj 797 379 spigot;
#X obj 829 356 tgl 15 0 empty empty empty 17 7 0 10 -262144 -1 -1 0
1;
#X obj 848 377 spigot;
#X obj 880 354 tgl 15 0 empty empty empty 17 7 0 10 -262144 -1 -1 0
1;
#X obj 904 374 spigot;
#X obj 936 351 tgl 15 0 empty empty empty 17 7 0 10 -262144 -1 -1 1
1;
#X obj 950 378 spigot;
#X obj 982 355 tgl 15 0 empty empty empty 17 7 0 10 -262144 -1 -1 0
1;
#X obj 995 377 spigot;
#X obj 1027 354 tgl 15 0 empty empty empty 17 7 0 10 -262144 -1 -1
1 1;
#X floatatom 726 479 5 0 0 0 - - -;
#X obj 725 510 select 0 1 2 3 4 5 6 7;
#X obj 725 446 r paso;
#X obj 720 568 spigot;
#X obj 752 545 tgl 15 0 empty empty empty 17 7 0 10 -262144 -1 -1 0
1;
#X obj 776 565 spigot;
#X obj 808 542 tgl 15 0 empty empty empty 17 7 0 10 -262144 -1 -1 1
1;
#X obj 822 569 spigot;
#X obj 854 546 tgl 15 0 empty empty empty 17 7 0 10 -262144 -1 -1 0
1;
#X obj 867 568 spigot;
#X obj 899 545 tgl 15 0 empty empty empty 17 7 0 10 -262144 -1 -1 1
1;
#X obj 918 566 spigot;
#X obj 950 543 tgl 15 0 empty empty empty 17 7 0 10 -262144 -1 -1 0
1;
#X obj 974 563 spigot;
#X obj 1006 540 tgl 15 0 empty empty empty 17 7 0 10 -262144 -1 -1
1 1;
#X obj 1020 567 spigot;
#X obj 1052 544 tgl 15 0 empty empty empty 17 7 0 10 -262144 -1 -1
0 1;
#X obj 1065 566 spigot;
#X obj 1097 543 tgl 15 0 empty empty empty 17 7 0 10 -262144 -1 -1
0 1;
#X obj 721 622 noise~;
#X obj 720 688 *~;
#X obj 780 651 vline~;
#X obj 763 476 bng 15 250 50 0 empty empty empty 17 7 0 10 -262144
-1 -1;
#X msg 785 615 0 \, 1 20 0 \, 0 20 30;
#X floatatom 263 15 5 0 0 0 - - -;
#N canvas 397 224 624 442 notapenta 0;
#X floatatom 158 66 5 0 0 0 - - -;
#X obj 160 182 * 1;
#X floatatom 160 228 5 0 0 0 - - -;
#X obj 209 153 * 9;
#X obj 211 183 / 8;
#X floatatom 212 224 5 0 0 0 - - -;
#X floatatom 255 223 5 0 0 0 - - -;
#X obj 252 152 * 5;
#X obj 254 182 / 4;
#X floatatom 304 224 5 0 0 0 - - -;
#X obj 301 153 * 3;
#X obj 303 183 / 2;
#X floatatom 346 221 5 0 0 0 - - -;
#X obj 343 150 * 5;
#X obj 345 180 / 3;
#X obj 393 154 * 2;
#X floatatom 396 221 5 0 0 0 - - -;
#X obj 50 76 random 6;
#X obj 49 126 select 0 1 2 3 4 5;
#X obj 47 30 bng 15 250 50 0 empty empty empty 17 7 0 10 -262144 -1
-1;
#X floatatom 51 101 5 0 0 0 - - -;
#X floatatom 147 384 5 0 0 0 - - -;
#X obj 145 253 f;
#X obj 198 252 f;
#X obj 241 251 f;
#X obj 290 249 f;
#X obj 331 252 f;
#X obj 382 249 f;
#X obj 39 3 inlet;
#X obj 140 413 outlet;
#X obj 155 26 r ff;
#X connect 0 0 1 0;
#X connect 0 0 3 0;
#X connect 0 0 7 0;
#X connect 0 0 15 0;
#X connect 0 0 10 0;
#X connect 0 0 13 0;
#X connect 1 0 2 0;
#X connect 2 0 22 1;
#X connect 3 0 4 0;
#X connect 4 0 5 0;
#X connect 5 0 23 1;
#X connect 6 0 24 1;
#X connect 7 0 8 0;
#X connect 8 0 6 0;
#X connect 9 0 25 1;
#X connect 10 0 11 0;
#X connect 11 0 9 0;
#X connect 12 0 26 1;
#X connect 13 0 14 0;
#X connect 14 0 12 0;
#X connect 15 0 16 0;
#X connect 16 0 27 1;
#X connect 17 0 20 0;
#X connect 18 0 22 0;
#X connect 18 1 23 0;
#X connect 18 2 24 0;
#X connect 18 3 25 0;
#X connect 18 4 26 0;
#X connect 18 5 27 0;
#X connect 19 0 17 0;
#X connect 20 0 18 0;
#X connect 21 0 29 0;
#X connect 22 0 21 0;
#X connect 23 0 21 0;
#X connect 24 0 21 0;
#X connect 25 0 21 0;
#X connect 26 0 21 0;
#X connect 27 0 21 0;
#X connect 28 0 19 0;
#X connect 30 0 0 0;
#X restore 875 106 pd notapenta;
#X obj 875 83 bng 15 250 50 0 empty empty empty 17 7 0 10 -262144 -1
-1;
#X floatatom 881 143 5 0 0 0 - - -;
#X floatatom 884 202 5 0 0 0 - - -;
#X obj 886 236 phasor~;
#X obj 932 281 vline~;
#X msg 964 242 0 \, 1 20 0 \, 0 20 30;
#X obj 910 302 *~;
#X obj 883 172 * 4;
#X obj 161 571 phasor~;
#X obj 161 545 vline~;
#X msg 137 512 220 \, 440 1000 0 \, 0 1000 1000;
#X connect 0 0 2 0;
#X connect 1 0 0 0;
#X connect 2 0 28 0;
#X connect 2 0 40 0;
#X connect 2 0 109 0;
#X connect 3 0 39 0;
#X connect 3 0 63 0;
#X connect 4 0 9 0;
#X connect 5 0 24 0;
#X connect 7 0 9 1;
#X connect 8 0 5 0;
#X connect 9 0 8 0;
#X connect 10 0 12 0;
#X connect 11 0 12 1;
#X connect 12 0 8 0;
#X connect 13 0 15 0;
#X connect 14 0 15 1;
#X connect 15 0 8 0;
#X connect 16 0 18 0;
#X connect 17 0 18 1;
#X connect 18 0 8 0;
#X connect 19 0 6 0;
#X connect 19 0 6 1;
#X connect 20 0 19 1;
#X connect 21 0 22 0;
#X connect 22 0 23 0;
#X connect 23 0 20 0;
#X connect 24 0 19 0;
#X connect 25 0 24 1;
#X connect 26 0 25 0;
#X connect 27 0 25 0;
#X connect 28 0 25 0;
#X connect 29 0 7 0;
#X connect 30 0 29 0;
#X connect 32 0 31 0;
#X connect 33 0 11 0;
#X connect 34 0 33 0;
#X connect 35 0 14 0;
#X connect 36 0 35 0;
#X connect 37 0 17 0;
#X connect 38 0 37 0;
#X connect 39 0 4 0;
#X connect 39 1 10 0;
#X connect 39 2 13 0;
#X connect 39 3 16 0;
#X connect 39 4 41 0;
#X connect 39 5 46 0;
#X connect 39 6 51 0;
#X connect 39 7 56 0;
#X connect 40 0 3 0;
#X connect 41 0 43 0;
#X connect 42 0 43 1;
#X connect 43 0 8 0;
#X connect 44 0 42 0;
#X connect 45 0 44 0;
#X connect 46 0 48 0;
#X connect 47 0 48 1;
#X connect 48 0 8 0;
#X connect 49 0 47 0;
#X connect 50 0 49 0;
#X connect 51 0 53 0;
#X connect 52 0 53 1;
#X connect 53 0 8 0;
#X connect 54 0 52 0;
#X connect 55 0 54 0;
#X connect 56 0 58 0;
#X connect 57 0 58 1;
#X connect 58 0 8 0;
#X connect 59 0 57 0;
#X connect 60 0 59 0;
#X connect 61 0 62 0;
#X connect 62 0 67 0;
#X connect 62 1 69 0;
#X connect 62 2 71 0;
#X connect 62 3 73 0;
#X connect 62 4 75 0;
#X connect 62 5 77 0;
#X connect 62 6 79 0;
#X connect 62 7 81 0;
#X connect 64 0 61 0;
#X connect 65 0 66 0;
#X connect 66 0 6 1;
#X connect 66 0 6 0;
#X connect 67 0 65 0;
#X connect 68 0 67 1;
#X connect 69 0 65 0;
#X connect 70 0 69 1;
#X connect 71 0 65 0;
#X connect 72 0 71 1;
#X connect 73 0 65 0;
#X connect 74 0 73 1;
#X connect 75 0 65 0;
#X connect 76 0 75 1;
#X connect 77 0 65 0;
#X connect 78 0 77 1;
#X connect 79 0 65 0;
#X connect 80 0 79 1;
#X connect 81 0 65 0;
#X connect 82 0 81 1;
#X connect 83 0 84 0;
#X connect 84 0 86 0;
#X connect 84 1 88 0;
#X connect 84 2 90 0;
#X connect 84 3 92 0;
#X connect 84 4 94 0;
#X connect 84 5 96 0;
#X connect 84 6 98 0;
#X connect 84 7 100 0;
#X connect 85 0 83 0;
#X connect 85 0 105 0;
#X connect 86 0 106 0;
#X connect 87 0 86 1;
#X connect 88 0 106 0;
#X connect 89 0 88 1;
#X connect 90 0 106 0;
#X connect 91 0 90 1;
#X connect 92 0 106 0;
#X connect 93 0 92 1;
#X connect 94 0 106 0;
#X connect 95 0 94 1;
#X connect 96 0 106 0;
#X connect 97 0 96 1;
#X connect 98 0 106 0;
#X connect 99 0 98 1;
#X connect 100 0 106 0;
#X connect 101 0 100 1;
#X connect 102 0 103 0;
#X connect 103 0 6 1;
#X connect 103 0 6 0;
#X connect 104 0 103 1;
#X connect 106 0 104 0;
#X connect 107 0 0 1;
#X connect 108 0 110 0;
#X connect 109 0 108 0;
#X connect 109 0 114 0;
#X connect 110 0 116 0;
#X connect 111 0 112 0;
#X connect 112 0 115 0;
#X connect 113 0 115 1;
#X connect 114 0 113 0;
#X connect 115 0 6 1;
#X connect 115 0 6 0;
#X connect 116 0 111 0;
#X connect 117 0 6 0;
#X connect 118 0 117 0;
#X connect 119 0 118 0;
